<?xml version="1.0" encoding="UTF-8" standalone="no"?>
<!-- Created with Inkscape (http://www.inkscape.org/) -->

<svg
   width="96"
   height="96"
   viewBox="0 0 96 96"
   version="1.1"
   id="svg1"
   xml:space="preserve"
   inkscape:version="1.4.3 (0d15f75042, 2025-12-25)"
   sodipodi:docname="favicon.svg"
   xmlns:inkscape="http://www.inkscape.org/namespaces/inkscape"
   xmlns:sodipodi="http://sodipodi.sourceforge.net/DTD/sodipodi-0.dtd"
   xmlns="http://www.w3.org/2000/svg"
   xmlns:svg="http://www.w3.org/2000/svg"><sodipodi:namedview
     id="namedview1"
     pagecolor="#ffffff"
     bordercolor="#000000"
     borderopacity="0.25"
     inkscape:showpageshadow="2"
     inkscape:pageopacity="0.0"
     inkscape:pagecheckerboard="0"
     inkscape:deskcolor="#d1d1d1"
     inkscape:document-units="px"
     inkscape:zoom="3.0523443"
     inkscape:cx="21.622725"
     inkscape:cy="61.755812"
     inkscape:window-width="1920"
     inkscape:window-height="979"
     inkscape:window-x="360"
     inkscape:window-y="1440"
     inkscape:window-maximized="1"
     inkscape:current-layer="layer1" /><defs
     id="defs1" /><g
     inkscape:label="Layer 1"
     inkscape:groupmode="layer"
     id="layer1"><rect
       style="fill:#4d4d4d;stroke-width:0.533333"
       id="rect1"
       width="96"
       height="96"
       x="0"
       y="0"
       rx="8.5333338"
       ry="8.5333338" /><g
       style="fill:#ffffff;stroke-linecap:round;stroke-linejoin:round"
       id="g1"
       transform="matrix(0.0016,0,0,0.0016,48,56)"><path
         d="M 17320.508,10000 7808.9845,-1623.0432 A 2500,2500 0 0 1 4330.127,-2500 2500,2500 0 0 1 5310.0889,-5951.2574 L 0,-20000 -5310.0889,-5951.2574 A 2500,2500 0 0 1 -4330.127,-2500 2500,2500 0 0 1 -7808.9845,-1623.0432 L -17320.508,10000 -2498.8956,7574.3005 A 2500,2500 0 0 1 0,5000 2500,2500 0 0 1 2498.8956,7574.3005 Z"
         style="fill:#ffffff;fill-rule:evenodd"
         id="path1" /></g></g></svg>
